# xmcd
#
# Track frame offsets: 
#        150
#        9952
#        20725
#        32750
#        49482
#        63669
#        78484
#        89630
#        101344
#        131249
#        168489
#        176278
#        186575
#        205749
#        236032
#
# Disc length: 3793 seconds
#
# Revision: 0
# Processed by: cddbd v1.5.2PL0 Copyright (c) Steve Scherf et al.
# Submitted via: ExactAudioCopy v0.99pb3
#
DISCID=d20ecf0f
DTITLE=Various Artist - Festliche Weihnachts Musik
DYEAR=1900
DGENRE=Folklore
TTITLE0=Stille Nacht,Heilige Nacht
TTITLE1=Leise rieselt der Schnee
TTITLE2=Morgen kommt der Weihnachtsmann
TTITLE3=In dulci Jubilo
TTITLE4=Heidschi Bumbeidschi
TTITLE5=First Noel
TTITLE6=Ave Maria
TTITLE7=Oh du Froehliche
TTITLE8=Weihnachtsoratorium
TTITLE9=Jauchzet, frohlocket
TTITLE10=Vivace, grave
TTITLE11=Allegro
TTITLE12=Adagio, Allegro, Adagio
TTITLE13=Allegro Maestro
TTITLE14=Allegro
EXTD=
EXTT0=
EXTT1=
EXTT2=
EXTT3=
EXTT4=
EXTT5=
EXTT6=
EXTT7=
EXTT8=
EXTT9=
EXTT10=
EXTT11=
EXTT12=
EXTT13=
EXTT14=
PLAYORDER=
